<svg

   viewBox="0 0 140 140"
   height="140"
   width="140"
   xml:space="preserve"
   id="svg2"
   version="1.1"><g
     transform="matrix(1.3333333,0,0,-1.3333333,0,1440)"
     id="g10"><g
       id="g12"><g
         clip-path="url(#clipPath18)"
         id="g14"><g
           transform="translate(760.1118,625.7964)"
           id="g20"><path
             id="path22"
             style="fill:#3a3a3a;fill-opacity:1;fill-rule:nonzero;stroke:none"
             d="m 0,0 c -1.526,0.208 -2.425,0.098 -3.06,0.456 -3.199,1.803 -6.38,3.649 -9.467,5.637 -2.161,1.392 -3.479,3.499 -3.623,6.101 -0.302,5.489 -0.23,10.978 0.013,16.885 1.479,-0.125 2.769,0.108 3.676,-0.376 2.878,-1.534 5.631,-3.307 8.398,-5.043 2.598,-1.631 4.082,-4.013 4.165,-7.087 C 0.246,11.286 0.337,5.994 0,0" /></g><g
           transform="translate(340.9849,495.4385)"
           id="g24"><path
             id="path26"
             style="fill:#319075;fill-opacity:1;fill-rule:nonzero;stroke:none"
             d="m 0,0 -0.101,145.75 c -14.106,11.729 -26.157,19.407 -33.021,22.458 -3.104,1.379 -6.275,2.561 -6.275,2.561 -6.437,2.398 -11.615,3.641 -13.755,4.124 -3.411,0.771 -8.897,1.828 -15.752,2.305 -7.457,0.519 -13.538,0.143 -17.366,-0.23 -2.549,-0.248 -8.053,-0.88 -14.689,-2.505 -1.904,-0.466 -3.544,-0.927 -4.722,-1.273 -4.359,-1.281 -7.958,-2.635 -10.627,-3.732 -10e-4,-49.675 -10e-4,-99.351 -0.002,-149.025 0.362,0.131 0.852,0.307 1.434,0.509 0.71,0.245 1.245,0.421 1.842,0.618 0.639,0.209 1.246,0.408 2.011,0.645 0.424,0.133 1.199,0.37 2.439,0.724 1.358,0.387 2.83,0.807 4.776,1.285 1.051,0.258 2.421,0.594 4.184,0.939 0.945,0.186 1.97,0.368 2.308,0.427 0.956,0.17 1.714,0.296 2.174,0.371 0.796,0.132 1.212,0.2 1.775,0.285 0.985,0.148 1.718,0.239 2.526,0.337 1.375,0.169 2.438,0.279 2.845,0.319 1.682,0.169 2.947,0.261 3.269,0.285 0.251,0.017 1.164,0.082 2.362,0.144 0.965,0.05 1.687,0.075 2.621,0.109 0.276,0.009 0.576,0.019 0.954,0.028 0.606,0.015 1.06,0.019 1.218,0.02 5.585,0.043 5.917,0.049 6.311,0.048 4.273,-0.01 9.988,-0.879 12.295,-1.229 2.43,-0.368 6.342,-0.972 11.27,-2.186 3.061,-0.754 10.55,-2.736 19.672,-6.83 1.645,-0.738 7.831,-3.559 15.437,-8.333 C -7.508,5.76 -3.303,2.646 0,0" /></g><g
           transform="translate(871.4648,520.3242)"
           id="g28"><path
             id="path30"
             style="fill:#3a3a3a;fill-opacity:1;fill-rule:nonzero;stroke:none"
             d="m 0,0 c -2.151,-5.602 -5.201,-10.626 -9.343,-15.024 -11.444,-12.2 -29.727,-11.718 -40.513,-4.205 -5.49,3.835 -9.775,8.683 -13.099,14.446 -3.819,6.645 -6.227,13.788 -7.671,21.284 -2.361,12.247 -2.425,24.447 0.528,36.582 1.67,6.837 4.334,13.226 8.797,18.78 4.334,5.377 9.631,9.454 16.421,11.3 9.133,2.488 17.833,1.557 25.923,-3.612 5.104,-3.258 9.133,-7.576 12.391,-12.632 C -0.69,57.786 2.44,47.689 3.708,36.967 4.141,33.307 4.173,29.599 4.382,25.923 4.318,17.047 3.226,8.347 0,0 M 21.637,40.755 C 20.449,50.45 17.352,59.535 12.183,67.85 -0.659,88.524 -23.933,97.706 -47.433,91.927 -63.324,88.026 -74.704,78.219 -82.296,63.933 c -5.618,-10.545 -8.042,-21.878 -7.946,-33.788 0.144,-2.874 0.161,-5.747 0.418,-8.62 1.139,-11.862 4.879,-22.809 11.798,-32.585 13.114,-18.571 35.522,-26.565 57.544,-20.995 17.272,4.334 29.165,15.297 36.501,31.301 6.084,13.242 7.383,27.191 5.618,41.509" /></g><g
           transform="translate(484.6558,541.5767)"
           id="g32"><path
             id="path34"
             style="fill:#3a3a3a;fill-opacity:1;fill-rule:nonzero;stroke:none"
             d="m 0,0 c -0.241,0.578 -0.707,1.284 -0.771,2.022 -0.962,10.867 -0.947,21.686 2.312,32.248 1.637,5.313 3.869,10.337 7.11,14.896 3.002,4.221 6.63,7.801 11.157,10.353 7.351,4.173 15.152,4.896 23.081,2.167 C 49.679,59.358 53.564,54.35 54.526,47.207 55.683,38.62 53.372,30.995 47.946,24.286 45.104,20.754 41.718,17.769 37.978,15.249 26.822,7.705 14.415,3.065 1.445,-0.209 1.107,-0.305 0.69,-0.113 0,0 m 73.018,-36.549 c -0.626,0.963 -1.38,1.813 -2.183,2.825 -1.862,-1.269 -3.386,-2.312 -4.895,-3.339 -4.447,-3.034 -9.278,-5.265 -14.511,-6.533 -18.475,-4.479 -33.259,2.135 -42.585,16.742 -3.21,5.056 -5.538,10.497 -7.207,16.982 1.782,0.594 3.082,1.091 4.43,1.461 11.108,2.953 22.103,6.196 32.649,10.835 6.405,2.809 12.568,6.051 18.171,10.272 4.285,3.243 8.009,7.031 10.899,11.606 4.831,7.64 6.565,16.019 4.59,24.767 C 69.888,60.081 62.264,66.646 51.862,70.064 42.681,73.098 33.258,73.114 23.917,70.819 7.335,66.726 -4.398,56.533 -12.055,41.477 c -3.948,-7.785 -6.116,-16.084 -6.95,-24.735 -1.349,-13.981 0.401,-27.481 6.661,-40.161 8.909,-18.042 23.162,-28.957 43.403,-31.205 15.169,-1.685 28.877,2.184 40.707,12.04 1.044,0.866 1.878,2.005 2.841,3.049 -0.642,1.203 -1.027,2.151 -1.589,2.986" /></g><g
           transform="translate(664.3525,598.9141)"
           id="g36"><path
             id="path38"
             style="fill:#3a3a3a;fill-opacity:1;fill-rule:nonzero;stroke:none"
             d="m 0,0 c -3.238,-4.322 -6.291,-8.397 -9.259,-12.359 -2.132,0.283 -2.527,1.839 -3.312,2.899 -2.701,3.648 -5.722,6.979 -9.373,9.69 -10.116,7.515 -23.004,7.584 -33.218,0.206 -5.45,-3.936 -9.329,-9.155 -12.274,-15.127 -3.306,-6.705 -5.091,-13.867 -5.794,-21.244 -1.22,-12.812 -0.024,-25.41 4.602,-37.505 1.383,-3.617 3.084,-7.179 5.125,-10.464 9.258,-14.9 24.229,-21.616 42.961,-16.95 5.23,1.303 10.018,3.574 14.466,6.591 1.499,1.018 2.995,2.04 4.528,3.085 0.612,-0.536 1.183,-0.854 1.491,-1.34 0.866,-1.368 1.623,-2.805 2.531,-4.404 -0.768,-0.839 -1.379,-1.628 -2.109,-2.284 -21.745,-19.556 -60.819,-18.431 -80.402,10.505 -6.208,9.173 -9.715,19.328 -10.988,30.326 -1.438,12.429 -0.38,24.573 3.935,36.337 4.43,12.082 11.742,21.938 22.689,29.007 17.996,11.62 44.837,11.262 62.82,-5.075 C -1.136,1.49 -0.8,0.967 0,0" /></g><g
           transform="translate(690.1997,603.5083)"
           id="g40"><path
             id="path42"
             style="fill:#3a3a3a;fill-opacity:1;fill-rule:nonzero;stroke:none"
             d="m 0,0 h -14.046 c -2.066,2.755 -0.935,5.354 -1.205,8.089 5.15,1.569 10.193,-0.188 15.257,1.361 0.515,4.736 0.184,9.419 0.244,14.08 0.057,4.51 -0.064,9.022 0.033,13.53 0.101,4.661 -0.451,9.355 0.411,14.257 1.2,-0.104 2.345,0.107 3.134,-0.327 3.048,-1.679 6.004,-3.531 8.952,-5.384 2.416,-1.517 3.714,-3.782 3.954,-6.607 0.139,-1.63 0.174,-3.273 0.179,-4.911 0.019,-6.355 -0.017,-12.711 0.023,-19.066 0.011,-1.802 0.209,-3.603 0.332,-5.579 C 23.315,7.86 29.333,9.651 35.313,8.225 35.938,5.706 35.929,3.34 35.324,0.659 29.578,-0.902 23.581,0.696 17.458,-0.379 17.271,-1.857 16.953,-3.214 16.951,-4.571 16.92,-32.862 16.915,-61.152 16.943,-89.443 c 0.002,-2.042 0.237,-4.091 0.481,-6.123 0.629,-5.23 3.576,-8.577 8.535,-10.187 1.348,-0.438 2.738,-0.747 4.195,-1.137 1.227,-2.398 0.694,-4.826 0.566,-7.541 -1.133,-0.296 -2.262,-0.832 -3.397,-0.842 -3.274,-0.028 -6.568,-0.031 -9.82,0.295 -6.929,0.693 -11.729,4.503 -14.601,10.747 -1.643,3.573 -2.443,7.387 -2.558,11.32 -0.078,2.663 -0.078,5.33 -0.078,7.994 C 0.26,-59.086 0.268,-33.255 0.251,-7.425 0.25,-5.211 0.106,-2.997 0,0" /></g><g
           transform="translate(744.0835,613.7808)"
           id="g44"><path
             id="path46"
             style="fill:#3a3a3a;fill-opacity:1;fill-rule:nonzero;stroke:none"
             d="m 0,0 c 0.755,-0.107 1.647,-0.004 2.279,-0.362 3.207,-1.815 6.409,-3.654 9.488,-5.674 2.359,-1.547 3.569,-3.905 3.691,-6.754 0.061,-1.433 0.074,-2.869 0.074,-4.304 0.003,-33.832 0.006,-67.663 -0.008,-101.494 -10e-4,-2.02 -0.137,-4.039 -0.207,-5.947 -4.432,-1.333 -8.194,-1.467 -15.391,-0.619 -1.533,1.948 -0.853,4.297 -0.861,6.466 -0.063,18.043 -0.036,36.087 -0.036,54.13 0,19.479 -0.016,38.958 0.025,58.436 C -0.942,-4.151 -1.49,-2.043 0,0" /></g><g
           transform="translate(340.2139,479.0801)"
           id="g48"><path
             id="path50"
             style="fill:#319075;fill-opacity:1;fill-rule:nonzero;stroke:none"
             d="m 0,0 c -1.258,1.199 -2.379,2.214 -3.295,3.022 -2.313,2.04 -4.126,3.474 -4.594,3.842 -1.204,0.948 -2.101,1.61 -3.347,2.528 -1.105,0.814 -2.656,1.957 -4.286,3.073 -3.032,2.076 -5.509,3.49 -7.21,4.457 -3.996,2.27 -7.155,3.752 -7.954,4.124 -1.488,0.692 -4.952,2.261 -9.592,3.893 -7.647,2.69 -13.803,3.905 -16.107,4.329 -1.852,0.341 -5.724,1.002 -10.724,1.4 -7.866,0.627 -14.034,0.247 -17.008,0 -1.75,-0.145 -5.171,-0.475 -9.46,-1.23 -4.79,-0.842 -8.597,-1.853 -10.928,-2.527 -2.79,-0.806 -4.935,-1.553 -5.943,-1.912 -2.833,-1.011 -4.897,-1.893 -7.411,-2.972 -1.726,-0.74 -3.438,-1.532 -6.865,-3.107 -1.525,-0.701 -2.786,-1.286 -3.655,-1.691 v 152.399 c -0.068,-0.029 -0.137,-0.059 -0.205,-0.088 -0.083,-0.036 -0.144,-0.062 -0.156,-0.067 -1.676,-0.712 -2.794,-1.207 -2.795,-1.207 -0.798,-0.353 -1.397,-0.632 -1.86,-0.849 -1.042,-0.484 -1.818,-0.864 -2.296,-1.099 -0.692,-0.339 -1.654,-0.817 -2.796,-1.407 -0.518,-0.268 -1.312,-0.679 -2.353,-1.244 -0.829,-0.45 -1.541,-0.85 -2.107,-1.172 V -0.134 c 0.157,0.097 0.285,0.174 0.369,0.225 0.126,0.076 0.323,0.194 0.566,0.34 0.249,0.148 0.206,0.121 0.35,0.207 0.434,0.26 0.424,0.265 0.612,0.369 0.152,0.083 0.217,0.112 0.38,0.209 0.075,0.044 0.115,0.07 0.231,0.138 0.091,0.054 0.159,0.091 0.254,0.146 0.193,0.108 0.213,0.116 0.374,0.209 0.102,0.057 0.103,0.059 0.239,0.137 0,0 0.145,0.083 0.321,0.181 3.522,1.974 7.262,3.804 7.262,3.804 2.202,1.078 4.572,2.238 7.812,3.586 4.404,1.832 7.867,2.951 10.246,3.714 3.764,1.207 6.826,2.021 8.657,2.484 2.881,0.73 5.09,1.194 5.763,1.332 1.162,0.241 5.016,1.023 10.195,1.691 4.507,0.582 7.942,0.809 8.914,0.871 0.79,0.05 4.435,0.273 9.298,0.257 3.777,-0.014 6.745,-0.166 8.273,-0.257 3.945,-0.235 6.942,-0.574 7.94,-0.692 2.349,-0.275 5.935,-0.759 10.271,-1.613 2.476,-0.488 6.943,-1.44 12.449,-3.074 1.93,-0.572 6.233,-1.896 11.629,-4.022 1.877,-0.74 4.857,-1.917 8.657,-3.739 C -9.192,5.078 -7.047,3.924 -5.456,3.064 -3.252,1.876 -1.401,0.818 0,0" /></g><g
           transform="translate(389.3213,655.3057)"
           id="g52"><path
             id="path54"
             style="fill:#3a3a3a;fill-opacity:1;fill-rule:nonzero;stroke:none"
             d="m 0,0 c 0.992,-6.752 1.028,-206.469 0.035,-213.964 -1.632,0.193 -3.341,0.164 -4.911,0.617 -11.841,3.413 -23.802,6.315 -36.086,7.455 -10.202,0.948 -20.453,2.044 -30.675,1.972 -41.652,-0.295 -80.526,-11.004 -116.402,-32.292 -3.745,-2.223 -7.345,-4.688 -11.037,-7.003 -0.784,-0.491 -1.673,-0.814 -4.073,-1.958 1.635,2.588 2.293,3.821 3.128,4.921 10.825,14.255 23.876,26.072 39.18,35.346 2.825,1.713 5.918,3.08 9.033,4.203 32.295,11.635 65.5,16.582 99.78,13.191 8.126,-0.804 16.223,-1.896 24.903,-2.924 0.27,1.422 0.687,2.811 0.767,4.218 0.131,2.302 0.047,4.615 0.047,6.924 0,62.072 0,124.144 0,186.216 0,3.058 0.005,7.47 0.005,10.814 z" /></g><g
           transform="translate(413.8413,653.8516)"
           id="g56"><path
             id="path58"
             style="fill:#3a3a3a;fill-opacity:1;fill-rule:nonzero;stroke:none"
             d="m 0,0 v -214.566 c 8.869,2.881 17.96,5.241 27.263,7.044 14.233,2.748 28.944,4.195 43.988,4.195 50.342,0 96.923,-16.147 134.813,-43.566 -12.195,18.183 -28.442,33.428 -47.46,44.422 -26.473,10.617 -55.372,16.458 -85.639,16.458 -5.898,0 -11.751,-0.222 -17.548,-0.656 -9.559,-0.724 -18.951,-2.025 -28.154,-3.884 V 19.04 Z" /></g></g></g></g></svg>